# xmcd
#
# Track frame offsets:
#	150
#	18859
#	33098
#	50339
#	67544
#	88259
#	103763
#	122474
#	136714
#	153954
#	171157
#	191871
#
# Disc length: 2764 seconds
#
# Revision: 2
# Processed by: cddbd v1.5.2PL0 Copyright (c) Steve Scherf et al.
# Submitted via: audiograbber 1.83.01
#
DISCID=8c0aca0c
DTITLE=Various Artist - CB20040 Hot Hits Vol. 40
DYEAR=1998
DGENRE=Country
TTITLE0=Garth Brooks - To Make You Feel My Love (Vocals)
TTITLE1=LeAnn Rimes - These Arms Of Mine (Vocals)
TTITLE2=David Kersh - Wonderful Tonight (Vocals)
TTITLE3=Lisa Brokop - How Do I Let Go (Vocals)
TTITLE4=John Michael Montgomery - Just To Hear You Say That You Love Me (Vocals
TTITLE4=)
TTITLE5=Restles Heart - No End to This Heart (Vocals)
TTITLE6=Garth Brooks - To Make You Feel My Love
TTITLE7=LeAnn Rimes - These Arms Of Mine
TTITLE8=David Kersh - Wonderful Tonight
TTITLE9=Lisa Brokop - How Do I Let Go
TTITLE10=John Michael Montgomery - Just To Hear You Say That You Love Me
TTITLE11=Restless Heart - No End To This Heart
EXTD=
EXTT0=
EXTT1=
EXTT2=
EXTT3=
EXTT4=
EXTT5=
EXTT6=
EXTT7=
EXTT8=
EXTT9=
EXTT10=
EXTT11=
PLAYORDER=
